<mxfile host="app.diagrams.net" agent="Mozilla/5.0 (Macintosh; Intel Mac OS X 10_15_7) AppleWebKit/537.36 (KHTML, like Gecko) Chrome/127.0.0.0 Safari/537.36" version="24.7.6">
  <diagram name="第 1 页" id="HgqtCpassItCS45GEu5C">
    <mxGraphModel dx="846" dy="585" grid="1" gridSize="10" guides="1" tooltips="1" connect="1" arrows="1" fold="1" page="1" pageScale="1" pageWidth="827" pageHeight="1169" math="0" shadow="0">
      <root>
        <mxCell id="0" />
        <mxCell id="1" parent="0" />
        <mxCell id="jJHt392qVwbhU1a-sDQp-7" style="edgeStyle=orthogonalEdgeStyle;rounded=0;orthogonalLoop=1;jettySize=auto;html=1;exitX=0.75;exitY=0;exitDx=0;exitDy=0;entryX=0.75;entryY=1;entryDx=0;entryDy=0;" edge="1" parent="1" source="jJHt392qVwbhU1a-sDQp-1" target="jJHt392qVwbhU1a-sDQp-5">
          <mxGeometry relative="1" as="geometry" />
        </mxCell>
        <mxCell id="jJHt392qVwbhU1a-sDQp-1" value="VisitedField" style="rounded=0;whiteSpace=wrap;html=1;" vertex="1" parent="1">
          <mxGeometry x="60" y="240" width="120" height="60" as="geometry" />
        </mxCell>
        <mxCell id="jJHt392qVwbhU1a-sDQp-3" value="字段是否存在？&lt;div&gt;字段是否是必须的？&lt;/div&gt;&lt;div&gt;字段的类型是否一致&lt;/div&gt;&lt;div&gt;字段是否符合验证的规则&lt;/div&gt;" style="text;html=1;align=center;verticalAlign=middle;whiteSpace=wrap;rounded=0;" vertex="1" parent="1">
          <mxGeometry x="500" y="90" width="210" height="90" as="geometry" />
        </mxCell>
        <mxCell id="jJHt392qVwbhU1a-sDQp-4" value="1.将字段添加到检测表，标记以及检测到此name的字段&lt;div style=&quot;&quot;&gt;2.校验此字段是否是必须的，但是却未设置&lt;/div&gt;&lt;div&gt;3. parse此字段，获取字段的类型type和校验信息rules&lt;/div&gt;&lt;div&gt;4.若在json的data中存在此数据，则将此数据强转为type类型，若报错，证明类型不一致&lt;/div&gt;&lt;div&gt;5. 将此数据和rules中的校验规则进行比对，若失败，则是校验错误，打印错误消息&lt;/div&gt;" style="shape=note2;boundedLbl=1;whiteSpace=wrap;html=1;size=25;verticalAlign=top;align=left;" vertex="1" parent="1">
          <mxGeometry x="200" y="170" width="300" height="140" as="geometry" />
        </mxCell>
        <mxCell id="jJHt392qVwbhU1a-sDQp-6" style="edgeStyle=orthogonalEdgeStyle;rounded=0;orthogonalLoop=1;jettySize=auto;html=1;exitX=0.25;exitY=1;exitDx=0;exitDy=0;entryX=0.25;entryY=0;entryDx=0;entryDy=0;" edge="1" parent="1" source="jJHt392qVwbhU1a-sDQp-5" target="jJHt392qVwbhU1a-sDQp-1">
          <mxGeometry relative="1" as="geometry" />
        </mxCell>
        <mxCell id="jJHt392qVwbhU1a-sDQp-5" value="root" style="rounded=0;whiteSpace=wrap;html=1;" vertex="1" parent="1">
          <mxGeometry x="60" y="80" width="120" height="60" as="geometry" />
        </mxCell>
        <mxCell id="jJHt392qVwbhU1a-sDQp-8" value="根据visitedField获取检测到的所有字段信息，比对数据中有无未出现的字段，有的话证明是出现多余字段错误" style="shape=note2;boundedLbl=1;whiteSpace=wrap;html=1;size=25;verticalAlign=top;align=left;" vertex="1" parent="1">
          <mxGeometry x="194" y="30" width="220" height="90" as="geometry" />
        </mxCell>
        <mxCell id="jJHt392qVwbhU1a-sDQp-9" value="1" style="text;html=1;align=center;verticalAlign=middle;whiteSpace=wrap;rounded=0;" vertex="1" parent="1">
          <mxGeometry x="40" y="190" width="60" height="30" as="geometry" />
        </mxCell>
        <mxCell id="jJHt392qVwbhU1a-sDQp-10" value="2" style="text;html=1;align=center;verticalAlign=middle;whiteSpace=wrap;rounded=0;" vertex="1" parent="1">
          <mxGeometry x="134" y="190" width="60" height="30" as="geometry" />
        </mxCell>
      </root>
    </mxGraphModel>
  </diagram>
</mxfile>
